:version 1.10
:name ASF
:units
  mass 1
  length 1
  angle deg
:documentation
  ASF file generated by Kaydara
:root
  axis xyz
  order  tx ty tz rx ry rz
  position 0 0 0
  orientation 0 0 0
:bonedata
  begin
    id 1
    name RightUpLegDummy
    direction -0.65628 -0.754516 0.00165102
    length 4.76918
    axis 0 0 0 xyz
  end
  begin
    id 2
    name RightUpLeg
    direction -0.145584 -0.923362 0.355256
    length 17.9961
    axis -24.7611 -13.1006 1.78531 xyz
    dof rx ry rz
  end
  begin
    id 3
    name RightLeg
    direction 0.263379 0.172355 -0.949171
    length 13.3386
    axis 89.6202 -21.1929 12.3855 xyz
    dof rx ry rz
  end
  begin
    id 4
    name RightFoot
    direction 0.224283 -0.968777 -0.105675
    length 5.86697
    axis 56.995 -39.6905 17.3365 xyz
    dof rx ry rz
  end
  begin
    id 5
    name RightToes
    direction -0.0806345 -0.9037 0.420506
    length 4.75197
    axis 146.825 -39.7828 17.6019 xyz
    dof rx ry rz
  end
  begin
    id 6
    name SpineDummy
    direction -3.39852e-014 1 9.33296e-014
    length 8.13779
    axis 0 0 0 xyz
  end
  begin
    id 7
    name Spine
    direction -0.156609 0.733703 0.661176
    length 7.14978
    axis 41.2365 5.68757 17.0844 xyz
    dof rx ry rz
  end
  begin
    id 8
    name Spine1
    direction 0 0 0
    length 0
    axis 42.8809 47.8308 -3.36039 xyz
    dof rx ry rz
  end
  begin
    id 9
    name HEadDummy
    direction 0.546431 0.701947 0.456819
    length 3.55512
    axis 42.8809 47.8308 -3.36039 xyz
  end
  begin
    id 10
    name HEad
    direction 0.23444 0.828559 0.508457
    length 7.35827
    axis 51.1864 49.2662 27.4903 xyz
    dof rx ry rz
  end
  begin
    id 11
    name LeftShoulder1Dummy
    direction 0.431183 0.475873 -0.766568
    length 2.49352
    axis 42.8809 47.8308 -3.36039 xyz
  end
  begin
    id 12
    name LeftShoulder1
    direction 0.268187 -0.383402 -0.883786
    length 4.48604
    axis -119.517 0.106469 35.1736 xyz
    dof rx ry rz
  end
  begin
    id 13
    name LeftArm
    direction 0.380567 -0.703221 -0.600541
    length 10.1142
    axis -5.41825 36.2925 7.8293 xyz
    dof rx ry rz
  end
  begin
    id 14
    name LeftForeArm
    direction 0.541071 -0.732356 -0.413396
    length 9.39839
    axis 4.65387 33.7604 7.81644 xyz
    dof rx ry rz
  end
  begin
    id 15
    name LeftHand
    direction 0.847511 -0.389379 -0.360707
    length 3.66142
    axis 7.65593 21.1436 -24.6758 xyz
    dof rx ry rz
  end
  begin
    id 16
    name RightShoulderDummy
    direction -0.692546 0.541855 0.476208
    length 2.49352
    axis 42.8809 47.8308 -3.36039 xyz
  end
  begin
    id 17
    name RightShoulder
    direction -0.870808 -0.316653 0.376065
    length 4.48602
    axis 141.571 51.133 -100.254 xyz
    dof rx ry rz
  end
  begin
    id 18
    name RightArm
    direction 0.366897 -0.87275 0.322015
    length 10.1142
    axis 92.3258 71.2036 138.917 xyz
    dof rx ry rz
  end
  begin
    id 19
    name RightForeArm
    direction 0.702487 -0.694568 0.155197
    length 9.39835
    axis 153.863 41.5092 -176.604 xyz
    dof rx ry rz
  end
  begin
    id 20
    name RightHand
    direction 0.79502 -0.601276 0.0800636
    length 3.66142
    axis 154.247 4.59222 142.9 xyz
    dof rx ry rz
  end
  begin
    id 21
    name LeftUpLegDummy
    direction 0.65628 -0.754516 0.00165102
    length 4.76919
    axis 0 0 0 xyz
  end
  begin
    id 22
    name LeftUpLeg
    direction -0.1277 -0.689368 0.713067
    length 17.9961
    axis -48.3385 -17.8675 0.791927 xyz
    dof rx ry rz
  end
  begin
    id 23
    name LeftLeg
    direction 0.109849 -0.991246 -0.0732378
    length 13.3386
    axis -2.05791 -7.30784 1.72042 xyz
    dof rx ry rz
  end
  begin
    id 24
    name LeftFoot
    direction 0.0448355 -0.272614 0.961078
    length 5.86697
    axis -18.7733 -7.89606 10.2113 xyz
    dof rx ry rz
  end
  begin
    id 25
    name LeftToes
    direction -0.18506 0.293668 0.937823
    length 4.75197
    axis 71.2267 -7.89606 10.2113 xyz
    dof rx ry rz
  end
:hierarchy
  begin
    root RightUpLegDummy SpineDummy LeftUpLegDummy
    RightUpLegDummy RightUpLeg
    RightUpLeg RightLeg
    RightLeg RightFoot
    RightFoot RightToes
    SpineDummy Spine
    Spine Spine1
    Spine1 HEadDummy LeftShoulder1Dummy RightShoulderDummy
    HEadDummy HEad
    LeftShoulder1Dummy LeftShoulder1
    LeftShoulder1 LeftArm
    LeftArm LeftForeArm
    LeftForeArm LeftHand
    RightShoulderDummy RightShoulder
    RightShoulder RightArm
    RightArm RightForeArm
    RightForeArm RightHand
    LeftUpLegDummy LeftUpLeg
    LeftUpLeg LeftLeg
    LeftLeg LeftFoot
    LeftFoot LeftToes
  end

:SAMPLES-PER-SECOND 30
:FULLY-SPECIFIED
:DEGREES
69
root  -8.14946 41.6606 1.71057 -167.4 20.2739 178.966
RightUpLeg  -0.647812 14.4759 10.7985
RightLeg  -82.4831 -13.66 2.66723
RightFoot  32.1191 5.18885 -18.0357
RightToes  -1.27222e-014 -6.36111e-015 6.36111e-015
Spine  -35.5442 -26.1795 -10.7045
Spine1  -4.38583 -20.4151 58.0254
HEad  -25.4539 3.53246 -12.866
LeftShoulder1  6.36111e-015 -1.33558e-015 6.49777e-015
LeftArm  44.2679 -6.29209 -56.9876
LeftForeArm  -68.3366 -53.265 56.9166
LeftHand  -2.95924 -7.1042 -13.0159
RightShoulder  -4.77083e-015 -6.36111e-015 -3.18055e-015
RightArm  103.1 -49.3353 -52.515
RightForeArm  -68.914 14.7319 -60.779
RightHand  0.233958 0.325732 -2.25118
LeftUpLeg  38.0263 24.9379 22.0684
LeftLeg  0.913905 -10.2666 -1.50409
LeftFoot  6.93518 7.98415 -21.8319
LeftToes  1.27222e-014 1.09105e-011 6.96064e-012
70
root  -8.44365 40.636 2.85468 -165.354 19.5651 -179.291
RightUpLeg  -1.60906 16.3461 10.8624
RightLeg  -77.1045 -14.9093 3.83434
RightFoot  29.3907 6.64764 -19.6137
RightToes  -1.27222e-014 -6.36111e-015 6.36111e-015
Spine  -34.7998 -25.5536 -10.8922
Spine1  -4.61895 -20.0703 57.6888
HEad  -26.2643 3.471 -12.4843
LeftShoulder1  6.36111e-015 -1.33558e-015 6.49777e-015
LeftArm  42.4142 -3.43345 -56.2387
LeftForeArm  -68.5099 -54.7138 60.2392
LeftHand  -2.79226 -6.48331 -13.0168
RightShoulder  -4.77083e-015 -6.36111e-015 -3.18055e-015
RightArm  99.4356 -50.2692 -50.8458
RightForeArm  -66.9815 15.684 -61.1615
RightHand  1.01066 -1.6591 -4.95904
LeftUpLeg  35.152 26.2859 20.3957
LeftLeg  -3.17218 -6.23348 -1.013
LeftFoot  6.7022 7.67866 -21.1421
LeftToes  1.27222e-014 1.09105e-011 6.96064e-012
71
root  -8.66081 39.2447 3.95897 -164.333 18.9187 -177.937
RightUpLeg  -0.672393 17.2838 10.0835
RightLeg  -73.6181 -15.6788 4.19735
RightFoot  25.5722 5.92265 -18.2375
RightToes  -1.27222e-014 -6.36111e-015 6.36111e-015
Spine  -34.591 -24.9377 -11.4824
Spine1  -2.78751 -19.6283 56.7121
HEad  -26.2221 2.70686 -10.9471
LeftShoulder1  6.36111e-015 -1.33558e-015 6.49777e-015
LeftArm  40.6215 -2.63027 -54.8854
LeftForeArm  -66.9036 -55.0852 58.9064
LeftHand  -2.41753 -5.24713 -11.58
RightShoulder  -4.77083e-015 -6.36111e-015 -3.18055e-015
RightArm  94.667 -50.4792 -48.9897
RightForeArm  -64.9681 16.415 -60.2093
RightHand  1.56285 -3.03966 -6.55337
LeftUpLeg  33.0624 26.4462 17.7919
LeftLeg  -4.62322 0.153094 -0.746973
LeftFoot  2.34563 5.77644 -18.0242
LeftToes  1.27222e-014 1.09105e-011 6.96064e-012
72
root  -8.78662 37.9185 4.88616 -168.072 17.4424 -178.466
RightUpLeg  5.60406 15.3269 7.25739
RightLeg  -73.3588 -14.5669 1.71934
RightFoot  14.8607 4.0704 -13.6231
RightToes  -1.27222e-014 -6.36111e-015 6.36111e-015
Spine  -29.9925 -25.0502 -14.187
Spine1  -1.25846 -18.6799 58.0623
HEad  -26.0922 1.95972 -8.84985
LeftShoulder1  6.36111e-015 -1.33558e-015 6.49777e-015
LeftArm  38.982 -4.89048 -53.2212
LeftForeArm  -63.8093 -53.3707 51.7438
LeftHand  -2.12095 -4.53825 -8.95003
RightShoulder  -4.77083e-015 -6.36111e-015 -3.18055e-015
RightArm  88.2886 -48.2761 -46.046
RightForeArm  -64.9636 14.8162 -54.2278
RightHand  0.926818 -0.901452 -5.53733
LeftUpLeg  37.0948 25.5661 14.8987
LeftLeg  -6.35949 3.76031 -0.919602
LeftFoot  -7.45154 3.31236 -14.4007
LeftToes  1.27222e-014 1.09105e-011 6.96064e-012
73
root  -8.78176 36.9007 5.69345 -168.66 16.0891 -178.808
RightUpLeg  6.44955 12.4689 5.27332
RightLeg  -72.4703 -12.8481 -2.20422
RightFoot  3.45361 4.02375 -10.5051
RightToes  -1.27222e-014 -6.36111e-015 6.36111e-015
Spine  -29.0096 -25.6719 -17.3375
Spine1  -0.137929 -17.7028 60.6233
HEad  -26.2767 2.31613 -9.2196
LeftShoulder1  6.36111e-015 -1.33558e-015 6.49777e-015
LeftArm  37.5796 -6.96359 -50.868
LeftForeArm  -63.8557 -51.0009 46.8141
LeftHand  -2.11761 -4.74638 -7.05453
RightShoulder  -4.77083e-015 -6.36111e-015 -3.18055e-015
RightArm  79.4405 -43.7499 -38.6065
RightForeArm  -66.2735 12.186 -46.9211
RightHand  -0.526742 3.8874 -1.53222
LeftUpLeg  37.2453 24.4515 13.4726
LeftLeg  -5.82125 3.66377 -0.817605
LeftFoot  -18.2382 1.59761 -11.7428
LeftToes  1.27222e-014 1.09105e-011 6.96064e-012
74
root  -8.76963 36.7278 6.32252 -168.79 15.6744 -179.852
RightUpLeg  3.15716 11.4618 4.22352
RightLeg  -68.6459 -12.8941 -2.47902
RightFoot  2.45793 4.69458 -11.6643
RightToes  -1.27222e-014 -6.36111e-015 6.36111e-015
Spine  -28.2111 -26.0598 -20.3165
Spine1  0.409407 -16.6544 61.4247
HEad  -26.1503 2.54338 -12.5723
LeftShoulder1  6.36111e-015 -1.33558e-015 6.49777e-015
LeftArm  37.3219 -6.59593 -48.0676
LeftForeArm  -68.7581 -49.4267 48.2493
LeftHand  -2.41958 -5.64602 -7.42017
RightShoulder  -4.77083e-015 -6.36111e-015 -3.18055e-015
RightArm  70.1872 -39.0757 -26.9554
RightForeArm  -67.1028 12.061 -47.2573
RightHand  -1.65733 8.11058 4.3053
LeftUpLeg  36.3186 25.0985 13.283
LeftLeg  -5.90432 2.84729 -0.846736
LeftFoot  -21.3777 1.13283 -10.2865
LeftToes  1.27222e-014 1.09105e-011 6.96064e-012
